<?xml version="1.0" encoding="utf-8"?>
<!-- Generator: Adobe Illustrator 16.0.3, SVG Export Plug-In . SVG Version: 6.00 Build 0)  -->
<!DOCTYPE svg PUBLIC "-//W3C//DTD SVG 1.1//EN" "http://www.w3.org/Graphics/SVG/1.1/DTD/svg11.dtd">
<svg version="1.1" id="Layer_1" xmlns="http://www.w3.org/2000/svg" xmlns:xlink="http://www.w3.org/1999/xlink" x="0px" y="0px"
	 width="60px" height="60px" viewBox="0 0 60 60" style="enable-background:new 0 0 60 60;" xml:space="preserve">
<style type="text/css">
<![CDATA[
	.st0{fill:#231F20;}
	.st1{clip-path:url(#SVGID_2_);}
	.st2{fill:none;stroke:#231F20;stroke-width:1.5;stroke-linecap:round;stroke-linejoin:round;stroke-miterlimit:10;}
]]>
</style>
<g>
	<g>
		<g>
			<path class="st0" d="M53.356,59.525c-1.184,0-2.252-0.375-2.938-1.061L27.085,35.167c-0.293-0.292-0.293-0.768-0.001-1.061
				c0.293-0.294,0.768-0.293,1.061-0.001l23.334,23.298c0.889,0.887,3.46,0.995,5.317-0.861c1.879-1.88,1.586-4.175,0.653-5.109
				L34.069,28.143c-0.293-0.292-0.294-0.767-0.002-1.061s0.767-0.294,1.061-0.002l23.38,23.292c1.582,1.582,1.782,4.795-0.652,7.231
				C56.531,58.928,54.851,59.525,53.356,59.525z"/>
		</g>
		<g>
			<path class="st0" d="M25.323,33.099c-0.192,0-0.383-0.073-0.53-0.219l-9.914-9.899c-1.663,0.616-7.149,2.222-11.005-1.634
				c-4.415-4.414-3.363-10.165-3.316-10.407c0.028-0.146,0.1-0.282,0.206-0.388l1.453-1.455c0.28-0.282,0.779-0.282,1.061,0
				l4.535,4.535l4.312,1.083l2.479-2.479l-1.094-3.765L8.708,3.668c-0.293-0.293-0.293-0.768,0-1.061l2.009-2.009
				c0.117-0.117,0.269-0.192,0.433-0.213c0.252-0.034,6.275-0.768,10.363,3.32c3.623,3.623,2.213,9.795,1.722,11.525l9.678,9.642
				c0.293,0.292,0.294,0.767,0.002,1.061c-0.292,0.293-0.767,0.295-1.061,0.002l-9.997-9.96c-0.202-0.201-0.272-0.5-0.182-0.77
				c0.023-0.069,2.271-6.945-1.223-10.439c-3.142-3.142-7.763-3-8.865-2.917l-1.288,1.288l4.407,4.409
				c0.089,0.089,0.155,0.2,0.19,0.321l1.272,4.375c0.076,0.263,0.003,0.546-0.19,0.74l-3.094,3.094
				c-0.186,0.187-0.456,0.262-0.713,0.197l-4.925-1.238c-0.132-0.033-0.252-0.101-0.348-0.197l-4.15-4.15L2,11.437
				c-0.129,1.019-0.458,5.456,2.935,8.849c3.774,3.772,9.759,1.157,9.819,1.13c0.282-0.126,0.616-0.066,0.836,0.154l10.263,10.248
				c0.293,0.292,0.293,0.768,0.001,1.061C25.707,33.025,25.515,33.099,25.323,33.099z"/>
		</g>
		<g>
			<g>
				<path class="st0" d="M54.111,57.297c-1.785,0-3.238-1.452-3.238-3.236c0-1.786,1.453-3.238,3.238-3.238
					c1.785,0,3.237,1.453,3.237,3.238C57.348,55.845,55.896,57.297,54.111,57.297z M54.111,52.323c-0.958,0-1.738,0.78-1.738,1.738
					c0,0.957,0.78,1.736,1.738,1.736c0.958,0,1.737-0.779,1.737-1.736C55.848,53.103,55.068,52.323,54.111,52.323z"/>
			</g>
		</g>
		<g>
			<path class="st0" d="M27.395,31.046c-0.192,0-0.384-0.073-0.53-0.22l-5.734-5.734c-0.661-0.66-1.1-1.476-1.236-2.298
				c-0.15-0.9,0.086-1.739,0.648-2.301c1.125-1.125,3.145-0.866,4.6,0.588l5.764,5.764c0.293,0.293,0.293,0.768,0,1.061
				s-0.768,0.293-1.061,0l-5.764-5.764c-0.817-0.816-1.975-1.091-2.479-0.588c-0.293,0.294-0.269,0.749-0.229,0.994
				c0.084,0.508,0.382,1.048,0.817,1.483l5.734,5.734c0.293,0.293,0.293,0.768,0,1.061C27.779,30.973,27.587,31.046,27.395,31.046z"
				/>
		</g>
		<g>
			<path class="st0" d="M48.343,50.767c-0.941,0-1.979-0.441-2.824-1.287L29.144,33.105c-0.293-0.293-0.293-0.768,0-1.061
				s0.768-0.293,1.061,0L46.579,48.42c0.816,0.815,1.976,1.093,2.479,0.588c0.294-0.294,0.27-0.75,0.229-0.995
				c-0.084-0.508-0.382-1.049-0.818-1.485L32.084,30.145c-0.293-0.293-0.293-0.768,0-1.061s0.768-0.293,1.061,0l16.384,16.383
				c1.455,1.455,1.714,3.476,0.589,4.601C49.647,50.539,49.02,50.767,48.343,50.767z"/>
		</g>
		<g>
			<g>
				<path class="st0" d="M24.753,38.17c-0.192,0-0.384-0.073-0.53-0.22c-0.293-0.293-0.293-0.768,0-1.061L52.239,8.875
					c0.052-0.081,0.112-0.14,0.19-0.195c0.186-0.196,0.465-0.273,0.726-0.208l0,0c0.009,0,1.853,0.279,5.073-2.904
					c-0.045-0.108-0.18-0.349-0.575-0.743l-2.479-2.479c-0.368-0.368-0.623-0.521-0.748-0.572c-3.276,3.312-2.913,5.024-2.909,5.042
					c0.062,0.261-0.01,0.568-0.205,0.752c-0.055,0.085-0.103,0.132-0.187,0.189L23.107,35.773c-0.293,0.293-0.768,0.293-1.061,0
					s-0.293-0.768,0-1.061l27.959-27.96c-0.038-0.917,0.325-3.006,3.445-6.126c0.245-0.245,0.56-0.375,0.91-0.375l0,0
					c0.567,0,1.18,0.338,1.874,1.033l2.479,2.478c1.497,1.496,1.054,2.386,0.657,2.783c-3.061,3.061-5.214,3.407-6.113,3.431
					L25.284,37.951C25.137,38.097,24.945,38.17,24.753,38.17z"/>
			</g>
			<g>
				<path class="st0" d="M7.623,59.748c-0.916,0-1.775-0.354-2.419-0.999l-3.955-3.957c-0.644-0.643-0.999-1.502-1-2.418
					c0-0.929,0.364-1.804,1.025-2.464l16.057-16.058c1.311-1.311,3.584-1.323,4.882-0.025l3.956,3.957
					c0.65,0.65,1.005,1.517,0.999,2.441c-0.006,0.92-0.37,1.788-1.024,2.442L10.088,58.724C9.428,59.384,8.552,59.748,7.623,59.748z
					 M19.795,34.329c-0.528,0-1.027,0.208-1.404,0.584L2.334,50.971c-0.377,0.377-0.585,0.875-0.585,1.403
					c0,0.515,0.199,0.997,0.56,1.357l3.955,3.958c0.731,0.73,2.02,0.72,2.764-0.025l16.056-16.057
					c0.374-0.374,0.581-0.868,0.584-1.391c0.003-0.52-0.195-1.007-0.56-1.371l-3.956-3.957
					C20.792,34.527,20.31,34.329,19.795,34.329z"/>
			</g>
		</g>
	</g>
</g>
</svg>
